<?xml version="1.0" encoding="utf-8"?>
<!-- Generator: Adobe Illustrator 19.0.0, SVG Export Plug-In . SVG Version: 6.00 Build 0)  -->
<svg version="1.1" id="图层_1" xmlns="http://www.w3.org/2000/svg" xmlns:xlink="http://www.w3.org/1999/xlink" x="0px" y="0px"
	 viewBox="0 0 184.7 25.7" style="enable-background:new 0 0 184.7 25.7;" xml:space="preserve">
<style type="text/css">
	.st0{fill:#004E96;}
	.st1{fill-rule:evenodd;clip-rule:evenodd;fill:#FFFFFF;}
	.st2{fill-rule:evenodd;clip-rule:evenodd;fill:#004E96;}
	.st3{fill-rule:evenodd;clip-rule:evenodd;fill:#54C2F0;}
	.st4{fill-rule:evenodd;clip-rule:evenodd;fill:#0080CB;}
</style>
<g id="XMLID_9017_">
	<g id="XMLID_9023_">
		<path id="XMLID_9564_" class="st0" d="M56.9,20.9l-0.4,0.6c-0.5-0.3-1-0.4-1.5-0.4c-0.8,0-1.4,0.2-1.9,0.5
			c-0.5,0.4-0.7,0.9-0.7,1.5c0,0.6,0.2,1,0.7,1.4c0.5,0.4,1.1,0.5,1.8,0.5c0.6,0,1-0.1,1.3-0.3v-1.2h-1.1V23h2.1v2.2
			c-0.3,0.2-0.7,0.3-1.2,0.4c-0.5,0.1-1,0.1-1.4,0.1c-1.1,0-1.9-0.2-2.5-0.7c-0.6-0.5-0.9-1.1-0.9-1.9c0-0.8,0.3-1.4,1-1.9
			c0.7-0.5,1.6-0.7,2.7-0.7C55.8,20.5,56.4,20.6,56.9,20.9z"/>
		<path id="XMLID_9562_" class="st0" d="M59.1,20.6h1.1V24c0,0.3,0.1,0.6,0.4,0.8c0.3,0.2,0.7,0.3,1.2,0.3c0.5,0,0.9-0.1,1.2-0.3
			c0.3-0.2,0.4-0.5,0.4-0.8v-3.4h1.1v3.5c0,0.5-0.2,0.9-0.7,1.2c-0.5,0.3-1.1,0.4-2,0.4c-0.9,0-1.5-0.1-2-0.4
			c-0.5-0.3-0.7-0.7-0.7-1.2V20.6z"/>
		<path id="XMLID_9559_" class="st0" d="M67.5,21.6c0.3-0.3,0.8-0.5,1.5-0.5c1.4,0,2.2,0.6,2.2,1.9c0,0.6-0.2,1.1-0.6,1.5
			C70.2,24.9,69.7,25,69,25c-0.6,0-1.1-0.2-1.4-0.6C67.2,24.1,67,23.6,67,23C67,22.4,67.2,22,67.5,21.6z M66.8,24.9
			c0.5,0.5,1.3,0.7,2.3,0.7c1.1,0,1.9-0.2,2.4-0.7c0.6-0.5,0.8-1.1,0.8-1.9c0-0.8-0.3-1.4-0.8-1.9c-0.6-0.4-1.4-0.7-2.4-0.7
			c-0.9,0-1.7,0.2-2.2,0.7c-0.6,0.5-0.8,1.1-0.8,1.8C65.9,23.8,66.2,24.4,66.8,24.9z"/>
		<path id="XMLID_9557_" class="st0" d="M76.6,21.2v4.4h-1.1v-4.4h-2.4v-0.6h6v0.6H76.6z"/>
		<path id="XMLID_9554_" class="st0" d="M82.7,24h-2.3l1.2-2.2L82.7,24z M84.7,25.6l-2.9-5.1h-0.3l-3.1,5.1h1.2l0.6-1.1H83l0.5,1.1
			H84.7z"/>
		<path id="XMLID_9552_" class="st0" d="M85.9,25.6v-5H87v5H85.9z"/>
		<path id="XMLID_9550_" class="st0" d="M92,24.6h0.9c0.1,0.3,0.4,0.4,0.8,0.4c0.5,0,0.8-0.1,1-0.2c0.2-0.1,0.3-0.5,0.3-1.1v-3.2H96
			v3.1c0,0.7-0.2,1.2-0.5,1.5c-0.3,0.3-0.9,0.5-1.8,0.5c-0.5,0-0.9-0.1-1.2-0.3C92.2,25.2,92,24.9,92,24.6z"/>
		<path id="XMLID_9548_" class="st0" d="M97.8,20.6h1.1V24c0,0.3,0.1,0.6,0.4,0.8c0.3,0.2,0.7,0.3,1.2,0.3c0.5,0,0.9-0.1,1.2-0.3
			c0.3-0.2,0.4-0.5,0.4-0.8v-3.4h1.1v3.5c0,0.5-0.2,0.9-0.7,1.2c-0.5,0.3-1.1,0.4-2,0.4c-0.9,0-1.5-0.1-2-0.4
			c-0.5-0.3-0.7-0.7-0.7-1.2V20.6z"/>
		<path id="XMLID_9546_" class="st0" d="M110,25.6L106,22v3.6h-1v-5h0.4l3.8,3.4v-3.4h1v5.1H110z"/>
		<path id="XMLID_9076_" class="st0" d="M115.6,24h-2.3l1.2-2.2L115.6,24z M117.6,25.6l-2.9-5.1h-0.3l-3.1,5.1h1.2l0.6-1.1h2.8
			l0.5,1.1H117.6z"/>
		<path id="XMLID_9074_" class="st0" d="M123.6,25.6l-3.9-3.6v3.6h-1v-5h0.4l3.8,3.4v-3.4h1v5.1H123.6z"/>
		<path id="XMLID_9072_" class="st0" d="M128.9,25.4l0.4-0.6c0.2,0.1,0.4,0.2,0.7,0.2c0.3,0.1,0.6,0.1,0.8,0.1c0.4,0,0.7-0.1,1-0.2
			c0.2-0.1,0.4-0.3,0.4-0.5c0-0.2-0.1-0.3-0.2-0.5c-0.1-0.1-0.5-0.3-1-0.5l-0.6-0.2c-0.5-0.2-0.9-0.3-1.1-0.6
			c-0.2-0.2-0.3-0.5-0.3-0.8c0-0.4,0.2-0.7,0.6-0.9c0.4-0.2,0.9-0.4,1.6-0.4c0.8,0,1.4,0.1,1.8,0.3l-0.3,0.6
			c-0.1-0.1-0.4-0.1-0.6-0.2c-0.3-0.1-0.5-0.1-0.8-0.1c-0.4,0-0.6,0.1-0.8,0.2c-0.2,0.1-0.3,0.3-0.3,0.5c0,0.1,0,0.2,0.1,0.3
			c0.1,0.1,0.2,0.2,0.3,0.3c0.1,0.1,0.4,0.2,0.8,0.3l0.6,0.2c0.5,0.2,0.9,0.4,1.1,0.6c0.2,0.2,0.3,0.5,0.3,0.9c0,0.4-0.2,0.7-0.7,1
			c-0.5,0.3-1.1,0.4-1.9,0.4C130,25.7,129.4,25.6,128.9,25.4z"/>
		<path id="XMLID_9070_" class="st0" d="M135.7,21.2v1.4h2.5v0.6h-2.5V25h3.4v0.6h-4.5v-5h4.5v0.6H135.7z"/>
		<path id="XMLID_9068_" class="st0" d="M145.5,20.8l-0.3,0.6c-0.3-0.2-0.9-0.2-1.6-0.2c-0.7,0-1.2,0.2-1.6,0.6
			c-0.4,0.4-0.6,0.9-0.6,1.5c0,0.6,0.2,1,0.6,1.4c0.4,0.4,0.9,0.5,1.6,0.5c0.7,0,1.3-0.2,1.6-0.5l0.6,0.5c-0.6,0.4-1.4,0.6-2.3,0.6
			c-1,0-1.8-0.2-2.3-0.7c-0.6-0.5-0.9-1.1-0.9-1.9c0-0.7,0.3-1.4,0.9-1.9c0.6-0.5,1.4-0.7,2.4-0.7C144.4,20.5,145,20.6,145.5,20.8z"
			/>
		<path id="XMLID_9066_" class="st0" d="M147.3,20.6h1.1V24c0,0.3,0.1,0.6,0.4,0.8c0.3,0.2,0.7,0.3,1.2,0.3c0.5,0,0.9-0.1,1.2-0.3
			c0.3-0.2,0.4-0.5,0.4-0.8v-3.4h1.1v3.5c0,0.5-0.2,0.9-0.7,1.2c-0.5,0.3-1.1,0.4-2,0.4c-0.9,0-1.5-0.1-2-0.4
			c-0.5-0.3-0.7-0.7-0.7-1.2V20.6z"/>
		<path id="XMLID_9063_" class="st0" d="M156.2,21.2c0.7,0,1.1,0.1,1.4,0.2c0.3,0.1,0.5,0.3,0.5,0.6c0,0.3-0.1,0.6-0.4,0.7
			c-0.3,0.1-0.7,0.2-1.4,0.2c-0.2,0-0.5,0-0.7,0v-1.6C155.9,21.2,156.1,21.2,156.2,21.2z M159.9,25.6l-2.2-2.3
			c0.4-0.1,0.8-0.2,1.1-0.5c0.3-0.2,0.4-0.5,0.4-0.8c0-1-0.9-1.4-2.8-1.4c-0.2,0-0.6,0-1.1,0c-0.5,0-0.8,0-0.8,0v5h1.1v-2.2
			c0.5,0,0.9,0,1.1,0l2,2.1H159.9z"/>
		<path id="XMLID_9061_" class="st0" d="M161.1,25.6v-5h1.1v5H161.1z"/>
		<path id="XMLID_9059_" class="st0" d="M167,21.2v4.4h-1.1v-4.4h-2.4v-0.6h6v0.6H167z"/>
		<path id="XMLID_9057_" class="st0" d="M170.8,25.6v-5h1.1v5H170.8z"/>
		<path id="XMLID_9055_" class="st0" d="M175,21.2v1.4h2.5v0.6H175V25h3.4v0.6h-4.5v-5h4.5v0.6H175z"/>
		<path id="XMLID_9053_" class="st0" d="M179.5,25.4l0.4-0.6c0.2,0.1,0.4,0.2,0.7,0.2c0.3,0.1,0.6,0.1,0.8,0.1c0.4,0,0.7-0.1,1-0.2
			c0.2-0.1,0.4-0.3,0.4-0.5c0-0.2-0.1-0.3-0.2-0.5c-0.1-0.1-0.5-0.3-1-0.5l-0.6-0.2c-0.5-0.2-0.9-0.3-1.1-0.6
			c-0.2-0.2-0.3-0.5-0.3-0.8c0-0.4,0.2-0.7,0.6-0.9c0.4-0.2,0.9-0.4,1.6-0.4c0.8,0,1.4,0.1,1.8,0.3l-0.3,0.6
			c-0.1-0.1-0.3-0.1-0.6-0.2c-0.3-0.1-0.5-0.1-0.8-0.1c-0.4,0-0.6,0.1-0.8,0.2c-0.2,0.1-0.3,0.3-0.3,0.5c0,0.1,0,0.2,0.1,0.3
			c0.1,0.1,0.2,0.2,0.3,0.3c0.1,0.1,0.4,0.2,0.8,0.3l0.6,0.2c0.5,0.2,0.9,0.4,1.1,0.6c0.2,0.2,0.3,0.5,0.3,0.9c0,0.4-0.2,0.7-0.7,1
			c-0.5,0.3-1.1,0.4-1.9,0.4C180.6,25.7,180,25.6,179.5,25.4z"/>
		<g id="XMLID_9024_">
			<g id="XMLID_9047_">
				<path id="XMLID_9050_" class="st0" d="M179.7,8.8h4.3V7.4h-10.2c0,0,0.3-0.4,0.7-1.3h8.9V4.8H175c0.4-1,0.5-2.1,0.7-3.5l-2.6,0
					c0,0,0,1.6-0.8,3.5h-7.1l0,1.4h6.4c-0.2,0.4-0.7,1.3-0.9,1.3h-6.3v1.4h4.9c-1.5,1.4-3.5,2.2-5.3,2.6l0.9,2c0,0,1.9-0.1,4.3-1.5
					v0.4h1.6c-0.2,0.9-1.4,2.3-4.4,3.2l0.9,2.1c0,0,4.5-0.6,6.3-5.3h3.4V16h-3.6v1.3h5.1c0.9,0,1.1-0.6,1.1-1.1v-3.9
					c2.1,1.3,4.2,1.6,4.2,1.6l0.8-2.1C181.2,11.1,180,9.6,179.7,8.8z M170.8,10.9c0.1,0,1.3-0.9,2.1-2.1h3.6c0.5,1,1,1.6,1.5,2.1
					H170.8z"/>
				<rect id="XMLID_9049_" x="166.1" y="2.2" class="st0" width="5" height="1.4"/>
				<rect id="XMLID_9048_" x="176.5" y="2.2" class="st0" width="5" height="1.4"/>
			</g>
			<g id="XMLID_9043_">
				<polygon id="XMLID_9046_" class="st0" points="156.8,15.6 156.8,9.3 161,9.3 161,7.9 156.8,7.9 156.8,3.5 161.2,3.5 161.2,2.1 
					148.7,2.1 148.7,3.5 154.2,3.5 154.2,15.6 152.5,15.6 152.5,6.5 149.9,6.5 149.9,15.6 147.7,15.6 147.7,16.9 161.8,16.9 
					161.8,15.6 				"/>
				<path id="XMLID_9045_" class="st0" d="M148.2,12.1c-0.6,0.7-1.1,1.1-1.5,1.4l0-6.9c0-0.7-0.5-0.9-0.9-0.9h-3.9v1.3h2.2v8.1
					c-0.3,0.3-0.8,0.4-0.8,0.4l0.8,1.8c0,0,2.7-1.1,5.3-3.6L148.2,12.1z"/>
				<rect id="XMLID_9044_" x="142.5" y="2.3" class="st0" width="4.3" height="1.5"/>
			</g>
			<g id="XMLID_9038_">
				<path id="XMLID_9040_" class="st0" d="M135.5,9.9h3.4V8.4h-9.9l1.6-2.1l-2.4-1.1l-2.6,3.2h-6.1v1.5h4.9l-2,2.5l4.5,1.5
					c-1.6,0.6-3.6,1-6.3,1.2l0.9,2.1c0,0,4.7,0,8.9-2.1l6.8,2.3l0.9-2.1l-5.3-1.8C133.9,12.5,134.5,11.9,135.5,9.9z M126.7,11.4
					l1.3-1.5h4.7c-0.5,1-1.8,2.1-2.6,2.7L126.7,11.4z"/>
				<path id="XMLID_9039_" class="st0" d="M137.5,3.1h-7V1.7h-2.6v1.3h-7.8l0,3.8h2.6l0-2.4h13.3l0,2.4h2.6V4
					C138.5,3.5,138,3.1,137.5,3.1z"/>
			</g>
			<g id="XMLID_9033_">
				<path id="XMLID_9035_" class="st0" d="M69,2H51.5v15.2H70V2.9C70,2.4,69.4,2,69,2z M67.3,15.9H54.1V3.3h13.2V15.9z"/>
				<polygon id="XMLID_9034_" class="st0" points="66.7,6.3 66.7,5 54.7,5 54.7,6.3 59.3,6.3 59.3,8.7 55.3,8.7 55.3,10.1 
					59.3,10.1 59.3,13 54.7,13 54.7,14.4 66.7,14.4 66.7,13.1 65.7,13.1 65.7,11.9 63.3,11.9 63.3,13.1 62,13.1 62,10.1 66,10.1 
					66,8.7 62,8.7 62,6.3 				"/>
			</g>
			<g id="XMLID_9030_">
				<path id="XMLID_9032_" class="st0" d="M85.1,16.3V9.7h-2.5V16h-1.8v1.4h3.3C84.7,17.3,85.1,16.8,85.1,16.3z"/>
				<path id="XMLID_9031_" class="st0" d="M93.3,14.1l0.9-2c-1.8-0.4-3.8-1.4-5.4-3.4h4.2V7.4h-9.7c0.1-0.1,0.4-0.6,0.5-1h7.9l0-1.4
					h-7.3c0.1-0.3,0.2-0.7,0.3-1.1h7.6V2.6l-7.3,0c0.1-0.8,0.1-0.8,0.1-0.8h-2.5c0,0,0,0.2-0.1,0.8h-7.7v1.4l7.4,0L81.9,5h-6.3
					l0,1.4h5.7c-0.4,0.8-0.6,1-0.6,1h-6.4v1.4l5.3,0c-2.1,2-4.1,2.6-5.9,3.1l0.9,2.1c1.9-0.7,3.2-1.2,4.1-1.8l0.7,1
					c-0.5,0.5-1.8,1.6-4,2.4l0.8,1.9c4-1,6.1-4,6.1-4l-1.4-2h-1.1c0.7-0.5,1.9-1.4,2.9-2.7h3.9c0.4,0.7,1.3,1.7,2.3,2.7H87l-1.4,2
					c0,0,2.1,3,6.1,4l0.9-1.9c-2.4-0.7-3.6-1.9-4.1-2.4l0.9-1.2C90.5,12.9,91.9,13.7,93.3,14.1z"/>
			</g>
			<path id="XMLID_9025_" class="st0" d="M114.6,5.3V3V2.9c0-0.5-0.5-0.9-1-0.9H99.2v1.4h5.1c0,0.5,0,1.1-0.1,1.9h-6.6v1.4h6.2
				c0,0-0.3,1.1-0.9,1.9h-4.2V10h3.2c-1.7,1.7-2.7,2.2-5,3l0.9,2.1c1.9-0.6,3.3-1.3,3.9-1.9v4.1h13.6v-4.8c0-0.5-0.6-0.9-0.9-0.9
				h-10.9c0.5-0.5,0.6-0.6,1.3-1.6h9.7l0-3.3h2.2V5.3H114.6z M104.4,13h8.4v2.9h-8.4V13z M112.1,8.6h-6.4c0.3-0.4,0.6-1.5,0.7-1.9
				h5.7V8.6z M112.1,5.3h-5.4c0.1-1.1,0.1-1.6,0.2-1.9h5.3V5.3z"/>
		</g>
	</g>
	<g id="XMLID_9018_">
		<path id="XMLID_9022_" class="st1" d="M10.3,8.6V17c0,0.4,0.3,0.8,0.6,1l9.7,7.1V0.5l-9.7,7.1C10.5,7.8,10.3,8.2,10.3,8.6z"/>
		<path id="XMLID_9021_" class="st2" d="M10.8,18.1c-0.3-0.2-0.6-0.7-0.6-1V8.6c0-0.4,0.3-0.8,0.6-1l9.7-7.1V0l-9.1,1
			c-0.4,0-0.9,0.2-1.2,0.4L0.6,7.6C0.3,7.8,0,8.2,0,8.6V17c0,0.4,0.3,0.8,0.6,1l9.6,6.2c0.4,0.2,0.8,0.3,1.2,0.4l9.1,1v-0.5
			L10.8,18.1z"/>
		<path id="XMLID_9020_" class="st3" d="M30.8,8.6V17c0,0.4-0.3,0.8-0.6,1l-9.7,7.1V0.5l9.7,7.1C30.5,7.8,30.8,8.2,30.8,8.6z"/>
		<path id="XMLID_9019_" class="st4" d="M30.2,18.1c0.3-0.2,0.6-0.7,0.6-1V8.6c0-0.4-0.3-0.8-0.6-1l-9.7-7.1V0l9.1,1
			c0.4,0,0.9,0.2,1.2,0.4l9.6,6.2c0.3,0.2,0.6,0.7,0.6,1V17c0,0.4-0.3,0.8-0.6,1l-9.6,6.2c-0.4,0.2-0.8,0.3-1.2,0.4l-9.1,1v-0.5
			L30.2,18.1z"/>
	</g>
</g>
</svg>
